#!OML:ASF E:\motion texture\Top Level 1\Subject 1\Session 1\male.ASF
:FULLY-SPECIFIED
:DEGREES
719
root -44.5196 17.9195 2.4624 674.902 -101.515 -668.953
lowerback -3.352 1.31917 8.41862
upperback 0.406548 1.18227 3.97658
thorax 2.40428 0.614947 -0.533538
lowerneck -13.4035 -4.46189 -8.95619
upperneck 34.9356 -7.15013 4.41689
head 14.8454 -4.13051 2.08651
rclavicle 5.91384e-015 4.85035e-014
rhumerus -34.9276 -15.904 -73.2016
rradius 26.7736
rwrist -1.51346
rhand -5.28853 -35.0324
rfingers 7.12502
rthumb 20.5162 -63.9684
lclavicle 5.91384e-015 4.85035e-014
lhumerus -49.2577 32.2221 65.4121
lradius 25.079
lwrist -30.0773
lhand -5.96737 22.6507
lfingers 7.12502
lthumb 19.8637 51.6556
rfemur -0.96369 5.61783 33.0862
rtibia 15.9453
rfoot -13.0338 -4.09187
rtoes 14.3757
lfemur -32.5249 6.21977 -4.40033
ltibia 28.3919
lfoot -5.69186 10.7738
ltoes -14.0424
720
root -44.6484 17.9005 2.46587 674.328 -101.549 -668.215
lowerback -3.51513 1.31272 8.4684
upperback 0.433248 1.14658 4.01226
thorax 2.52219 0.60086 -0.52207
lowerneck -13.5799 -4.39739 -8.93811
upperneck 34.9071 -7.05373 4.49933
head 14.8662 -4.06829 2.13149
rclavicle 1.56046e-014 0
rhumerus -35.2203 -17.6084 -71.8284
rradius 25.1315
rwrist 1.85296
rhand -7.93496 -36.4244
rfingers 7.12502
rthumb 17.9714 -65.6141
lclavicle 1.56046e-014 0
lhumerus -48.6295 31.4601 66.3984
lradius 25.784
lwrist -29.1566
lhand -6.04105 22.5092
lfingers 7.12502
lthumb 19.7929 51.5214
rfemur -0.736881 5.43716 33.193
rtibia 16.0675
rfoot -13.4162 -4.25911
rtoes 13.5284
lfemur -32.3672 5.78871 -4.04735
ltibia 25.9076
lfoot -5.71791 11.1874
ltoes -14.6908
721
root -44.7777 17.8799 2.46773 674.325 -101.608 -668.082
lowerback -3.50358 1.32269 8.41579
upperback 0.33185 1.17107 4.02781
thorax 2.41015 0.60642 -0.477601
lowerneck -13.5268 -4.30879 -8.82183
upperneck 34.8932 -6.95513 4.48949
head 14.8312 -4.01431 2.12571
rclavicle 2.68359e-015 -1.35174e-014
rhumerus -35.7596 -19.3222 -70.2971
rradius 23.3779
rwrist 5.16675
rhand -10.6701 -37.7163
rfingers 7.12502
rthumb 15.3383 -67.1274
lclavicle 2.68359e-015 -1.35174e-014
lhumerus -48.2525 30.6668 67.15
lradius 26.4161
lwrist -28.2735
lhand -6.1656 22.3704
lfingers 7.12502
lthumb 19.6732 51.3949
rfemur -0.502944 5.46116 33.2606
rtibia 16.2511
rfoot -13.6999 -4.47872
rtoes 12.7837
lfemur -32.0901 5.25101 -3.63946
ltibia 23.3145
lfoot -5.83477 11.7137
ltoes -14.9143
722
root -44.9084 17.8626 2.47127 673.704 -101.805 -667.179
lowerback -3.69488 1.36277 8.57149
upperback 0.235137 1.19341 4.11975
thorax 2.42098 0.614195 -0.464028
lowerneck -13.5453 -4.22973 -8.78188
upperneck 34.8549 -6.84261 4.50896
head 14.8054 -3.95628 2.14641
rclavicle 2.43511e-014 1.47101e-014
rhumerus -36.2893 -21.1199 -68.5866
rradius 21.5771
rwrist 8.5357
rhand -13.4187 -38.6631
rfingers 7.12502
rthumb 12.6896 -68.2576
lclavicle 2.43511e-014 1.47101e-014
lhumerus -47.8477 29.8766 67.9655
lradius 27.1067
lwrist -27.3932
lhand -6.15716 22.3344
lfingers 7.12502
lthumb 19.6813 51.3581
rfemur -0.462342 5.50825 33.5596
rtibia 16.535
rfoot -14.0068 -4.72017
rtoes 11.9537
lfemur -32.0901 5.25101 -3.63946
ltibia 23.3145
lfoot -5.83477 11.7137
ltoes -14.9143
723
root -45.0492 17.8392 2.47919 673.052 -101.868 -666.37
lowerback -3.89751 1.35419 8.69547
upperback 0.226657 1.14815 4.14883
thorax 2.52564 0.594849 -0.50054
lowerneck -13.7075 -4.17724 -8.70126
upperneck 34.8218 -6.76284 4.52916
head 14.8164 -3.90187 2.15193
rclavicle -8.89561e-015 -6.75868e-015
rhumerus -36.9264 -23.4676 -66.5045
rradius 19.7652
rwrist 12.7269
rhand -15.2761 -39.3265
rfingers 7.12502
rthumb 10.8984 -69.0237
lclavicle -8.89561e-015 -6.75868e-015
lhumerus -47.4063 29.1076 68.7136
lradius 27.7999
lwrist -26.5221
lhand -6.30906 22.1498
lfingers 7.12502
lthumb 19.5352 51.1884
rfemur -0.18623 5.32664 33.6873
rtibia 16.6905
rfoot -14.3657 -4.77898
rtoes 10.7687
lfemur -32.0901 5.25101 -3.63946
ltibia 23.3145
lfoot -5.83477 11.7137
ltoes -14.9143
724
root -45.1792 17.818 2.48111 673.634 -101.869 -666.851
lowerback -4.00518 1.39276 8.41228
upperback 0.227745 1.19935 4.19221
thorax 2.5835 0.618459 -0.294095
lowerneck -13.7682 -4.12301 -8.68378
upperneck 34.7286 -6.67222 4.56608
head 14.7788 -3.84962 2.17914
rclavicle -1.53064e-014 -2.5842e-014
rhumerus -37.8816 -26.2184 -63.8575
rradius 18.0921
rwrist 17.5669
rhand -16.4627 -39.8544
rfingers 7.12502
rthumb 9.75375 -69.6085
lclavicle -1.53064e-014 -2.5842e-014
lhumerus -46.8688 28.2364 69.6398
lradius 28.4825
lwrist -25.4976
lhand -6.25787 22.2254
lfingers 7.12502
lthumb 19.5845 51.2589
rfemur -0.0101612 5.57624 33.6355
rtibia 17.0378
rfoot -14.7206 -5.11712
rtoes 9.64616
lfemur -32.0901 5.25101 -3.63946
ltibia 23.3145
lfoot -5.83477 11.7137
ltoes -14.9143
725
root -45.3161 17.7948 2.48957 673.64 -101.909 -666.63
lowerback -4.01844 1.38229 8.47696
upperback 0.0192115 1.1992 4.14992
thorax 2.3758 0.608769 -0.37701
lowerneck -13.78 -4.017 -8.52396
upperneck 34.6965 -6.55906 4.58404
head 14.7484 -3.77788 2.17823
rclavicle 6.11263e-015 -1.15295e-014
rhumerus -39.5019 -29.6186 -60.4373
rradius 16.3078
rwrist 23.6206
rhand -17.8772 -39.5594
rfingers 7.12502
rthumb 8.38887 -69.3728
lclavicle 6.11263e-015 -1.15295e-014
lhumerus -46.9203 27.588 69.8866
lradius 29.2077
lwrist -24.9043
lhand -6.3759 21.8612
lfingers 7.12502
lthumb 19.471 50.9063
rfemur 0.0761622 5.62552 33.6615
rtibia 17.3625
rfoot -15.0139 -5.24709
rtoes 8.60824
lfemur -32.0901 5.25101 -3.63946
ltibia 23.3145
lfoot -5.83477 11.7137
ltoes -14.9143
726
root -45.4606 17.7696 2.50075 673.326 -101.984 -666.111
lowerback -4.28573 1.39649 8.59032
upperback 0.0103049 1.17782 4.15877
thorax 2.51819 0.602561 -0.425665
lowerneck -14.0752 -3.99064 -8.45751
upperneck 34.6285 -6.51519 4.67066
head 14.7808 -3.72584 2.20543
rclavicle 8.15017e-015 1.19271e-015
rhumerus -41.469 -33.7099 -56.1463
rradius 14.6016
rwrist 30.399
rhand -18.3056 -39.2367
rfingers 7.12502
rthumb 7.97537 -69.0662
lclavicle 8.15017e-015 1.19271e-015
lhumerus -46.5111 26.9537 70.4319
lradius 29.8045
lwrist -24.1942
lhand -6.36754 21.692
lfingers 7.12502
lthumb 19.479 50.7363
rfemur 0.234379 5.57885 33.7332
rtibia 17.6684
rfoot -15.3797 -5.26534
rtoes 7.62858
lfemur -32.0901 5.25101 -3.63946
ltibia 23.3145
lfoot -5.83477 11.7137
ltoes -14.9143
727
root -45.5925 17.7467 2.50567 673.662 -102.103 -666.249
lowerback -4.30449 1.45083 8.52595
upperback -0.126301 1.25975 4.18925
thorax 2.38992 0.634566 -0.355089
lowerneck -14.1343 -3.94297 -8.48796
upperneck 34.5271 -6.47825 4.86131
head 14.7525 -3.68334 2.29538
rclavicle 1.55052e-014 -1.94809e-014
rhumerus -44.5106 -37.9058 -50.7703
rradius 13.2738
rwrist 37.5617
rhand -18.5104 -38.9401
rfingers 7.12502
rthumb 7.77772 -68.777
lclavicle 1.55052e-014 -1.94809e-014
lhumerus -46.3144 26.266 70.8748
lradius 30.4207
lwrist -23.5812
lhand -6.49834 21.4697
lfingers 7.12502
lthumb 19.3532 50.5267
rfemur 0.248862 5.88608 33.8148
rtibia 18.1695
rfoot -15.6954 -5.49926
rtoes 6.35435
lfemur -32.0901 5.25101 -3.63946
ltibia 23.3145
lfoot -5.83477 11.7137
ltoes -14.9143
728
root -45.7326 17.7212 2.51854 674.111 -102.063 -666.539
lowerback -4.37814 1.42612 8.4228
upperback -0.239616 1.23585 4.14123
thorax 2.30998 0.617991 -0.350145
lowerneck -14.2016 -3.8407 -8.34718
upperneck 34.416 -6.34796 4.88824
head 14.6981 -3.60013 2.30319
rclavicle -1.6027e-014 9.14409e-015
rhumerus -48.7268 -42.4609 -43.9763
rradius 12.0824
rwrist 45.3713
rhand -18.6143 -38.6948
rfingers 7.12502
rthumb 7.67748 -68.5355
lclavicle -1.6027e-014 9.14409e-015
lhumerus -46.1656 25.705 71.1523
lradius 30.9901
lwrist -23.0025
lhand -6.40013 21.5719
lfingers 7.12502
lthumb 19.4477 50.6194
rfemur 0.357324 5.90092 33.6464
rtibia 18.5817
rfoot -16.0107 -5.49352
rtoes 5.29719
lfemur -32.0901 5.25101 -3.63946
ltibia 23.3145
lfoot -5.83477 11.7137
ltoes -14.9143
729
root -45.8683 17.6969 2.52735 674.292 -102.165 -666.573
lowerback -4.38639 1.46945 8.39032
upperback -0.331046 1.29923 4.16639
thorax 2.22241 0.643666 -0.30333
lowerneck -14.2987 -3.82954 -8.32785
upperneck 34.2619 -6.33691 4.99716
head 14.6511 -3.56915 2.34477
rclavicle -1.85367e-014 6.16232e-014
rhumerus -54.1614 -46.6153 -36.0135
rradius 11.3208
rwrist 52.7295
rhand -18.399 -38.3071
rfingers 7.12502
rthumb 7.88522 -68.1401
lclavicle -1.85367e-014 6.16232e-014
lhumerus -45.9215 25.1224 71.5404
lradius 31.5569
lwrist -22.4712
lhand -6.49548 21.3639
lfingers 7.12502
lthumb 19.356 50.4206
rfemur 0.416565 6.1511 33.7011
rtibia 19.1286
rfoot -16.3096 -5.64205
rtoes 3.99902
lfemur -32.0901 5.25101 -3.63946
ltibia 23.3145
lfoot -5.83477 11.7137
ltoes -14.9143
